:SAMPLES-PER-SECOND 24
:FULLY-SPECIFIED
:DEGREES
147
root  -4.11287 38.0299 64.4968 -179.844 52.0143 -178.643
RightUpLeg  -12.4658 -21.1138 -10.4117
RightLeg  37.2094 -2.80849 -2.54791
RightFoot  -10.6495 -0.151671 12.6233
RightToes  -1.74623e-010 0 -2.59999e-017
Spine  6.89721 -0.571819 -3.41385
Spine1  20.2985 -0.543691 -1.68408
HEad  -19.8098 43.1441 -22.6448
LeftShoulder1  1.53235 -2.71887 -18.0236
LeftArm  -1.07455 -5.58248 -37.829
LeftForeArm  25.8142 -68.4918 -27.0737
LeftHand  0.650712 9.66216 18.7559
RightShoulder  2.61563 4.84975 25.2531
RightArm  9.09376 2.2656 47.52
RightForeArm  119.863 79.0258 115.927
RightHand  -0.160564 -11.3287 1.8038
LeftUpLeg  -19.7502 9.1591 3.11295
LeftLeg  34.1516 3.74078 3.10465
LeftFoot  -10.1512 0.0732736 -1.22527
LeftToes  -6.27559e-011 -2.10356e-011 8.24929e-012
148
root  -3.91122 38.2617 64.3019 179.731 54.6378 -178.644
RightUpLeg  -11.1619 -20.4445 -11.6993
RightLeg  35.895 2.04953 1.32714
RightFoot  -9.17278 -0.294834 12.4631
RightToes  -1.74623e-010 0 -2.59999e-017
Spine  6.57232 0.161823 -2.81409
Spine1  19.4619 0.655482 -2.94199
HEad  -20.9969 43.1023 -22.8159
LeftShoulder1  1.63231 -2.82174 -19.2936
LeftArm  0.0114923 -2.39689 -38.7053
LeftForeArm  42.9009 -67.4552 -22.867
LeftHand  0.929027 14.7709 12.0129
RightShoulder  2.66342 4.88815 25.6977
RightArm  10.8815 1.11993 48.5074
RightForeArm  131.061 78.3953 123.366
RightHand  -0.0775547 -10.9939 0.356504
LeftUpLeg  -17.3552 11.3961 3.54635
LeftLeg  32.2306 4.04117 3.1186
LeftFoot  -10.0456 0.0796822 -1.74719
LeftToes  -6.27559e-011 -2.10356e-011 8.24929e-012
149
root  -3.50492 38.9587 64.0945 177.011 60.5823 -179.624
RightUpLeg  -9.0856 -18.5886 -13.5244
RightLeg  34.0678 9.62388 6.69186
RightFoot  -4.62234 -0.789555 12.8371
RightToes  -1.74623e-010 0 -2.59999e-017
Spine  7.48942 2.09992 -2.38098
Spine1  18.4049 3.16668 -4.55142
HEad  -22.5524 43.9693 -24.121
LeftShoulder1  1.73903 -2.89645 -20.7607
LeftArm  1.08334 4.65978 -38.9263
LeftForeArm  55.5248 -69.1044 -23.3909
LeftHand  0.372601 11.5951 7.69448
RightShoulder  2.71075 4.92778 26.1289
RightArm  11.3334 -2.26254 48.736
RightForeArm  136.14 74.88 138.263
RightHand  -0.131314 -10.908 1.41858
LeftUpLeg  -9.84251 16.9732 4.55344
LeftLeg  25.2829 4.09721 2.64371
LeftFoot  -7.95163 0.121146 -2.5231
LeftToes  -6.27559e-011 -2.10356e-011 8.24929e-012
150
root  -3.1403 39.6083 63.9938 177.602 62.5984 -178.839
RightUpLeg  -7.50258 -19.2571 -14.1355
RightLeg  31.8453 13.3011 8.55039
RightFoot  -1.5464 -1.25936 14.5018
RightToes  -1.74623e-010 0 -2.59999e-017
Spine  6.75363 2.33619 -1.52012
Spine1  17.1082 3.46064 -4.77933
HEad  -22.0718 45.2168 -24.1835
LeftShoulder1  1.76595 -2.93922 -21.0146
LeftArm  2.92021 12.3497 -39.9352
LeftForeArm  46.3227 -68.7598 -24.2685
LeftHand  0.133924 7.81383 7.88653
RightShoulder  2.71805 4.91577 26.2673
RightArm  12.0425 -5.88708 48.2889
RightForeArm  137.549 70.5525 148.05
RightHand  -0.183934 -10.4079 2.80833
LeftUpLeg  -5.26915 12.8369 6.15506
LeftLeg  18.8027 9.84769 1.84842
LeftFoot  -4.62081 0.267656 -4.08571
LeftToes  -6.27559e-011 -2.10356e-011 8.24929e-012
151
root  -2.81702 39.9228 64.0508 179.436 61.9855 -177.467
RightUpLeg  -6.17204 -19.8261 -14.227
RightLeg  30.2561 9.78955 5.89322
RightFoot  -0.377176 -1.23547 12.8305
RightToes  -1.74623e-010 0 -2.59999e-017
Spine  5.53209 1.86858 -1.00215
Spine1  15.5478 2.65523 -3.93806
HEad  -19.9885 46.1039 -22.4028
LeftShoulder1  1.76163 -3.05508 -20.4281
LeftArm  4.51087 17.8424 -41.4378
LeftForeArm  31.4075 -66.9646 -23.9189
LeftHand  -0.0095695 6.24852 3.29671
RightShoulder  2.71843 4.92769 26.2244
RightArm  12.5394 -8.80251 46.9287
RightForeArm  138.129 67.2057 153.018
RightHand  -0.142861 -8.27265 3.68532
LeftUpLeg  -3.82287 8.97167 7.32118
LeftLeg  15.2913 12.6118 1.06456
LeftFoot  -3.25124 0.434748 -5.90222
LeftToes  -6.27559e-011 -2.10356e-011 8.24929e-012
152
root  -2.53179 39.7643 64.238 178.993 62.0386 -178.009
RightUpLeg  -5.6975 -18.6377 -15.05
RightLeg  31.6269 2.27811 1.24111
RightFoot  0.947751 -0.983064 9.11417
RightToes  -1.74623e-010 0 -2.59999e-017
Spine  5.26149 2.00831 -1.53132
Spine1  13.9817 2.42306 -2.9381
HEad  -18.5869 46.4024 -20.8434
LeftShoulder1  1.7563 -3.18604 -19.78
LeftArm  5.90778 20.3769 -42.6141
LeftForeArm  27.6306 -65.1741 -22.1212
LeftHand  0.00858473 4.29488 -2.62969
RightShoulder  2.66984 4.90364 25.7166
RightArm  12.081 -9.92873 45.3932
RightForeArm  136.812 65.6652 154.675
RightHand  -0.103627 -7.27679 3.62934
LeftUpLeg  -4.1661 12.8327 7.74082
LeftLeg  16.6738 8.49963 0.745387
LeftFoot  -4.95276 0.372779 -6.11199
LeftToes  -6.27559e-011 -2.10356e-011 8.24929e-012
